<?xml version="1.0" encoding="UTF-8"?>
<!DOCTYPE svg PUBLIC "-//W3C//DTD SVG 1.1//EN" "http://www.w3.org/Graphics/SVG/1.1/DTD/svg11.dtd">
<svg xmlns="http://www.w3.org/2000/svg" version="1.1" width="940px" height="825px" style="shape-rendering:geometricPrecision; text-rendering:geometricPrecision; image-rendering:optimizeQuality; fill-rule:evenodd; clip-rule:evenodd" xmlns:xlink="http://www.w3.org/1999/xlink">
<g><path style="opacity:0.979" fill="#fefffe" d="M 411.5,-0.5 C 414.833,-0.5 418.167,-0.5 421.5,-0.5C 430.159,6.66571 437.659,14.999 444,24.5C 446,30.8333 446,37.1667 444,43.5C 392.043,106.459 339.71,169.126 287,231.5C 280.803,237.104 273.969,237.937 266.5,234C 260.548,227.26 254.715,220.426 249,213.5C 245.4,205.315 245.733,197.315 250,189.5C 300.376,130.126 350.376,70.4592 400,10.5C 403.422,6.23375 407.256,2.56709 411.5,-0.5 Z"/></g>
<g><path style="opacity:0.978" fill="#fefffe" d="M 517.5,-0.5 C 520.833,-0.5 524.167,-0.5 527.5,-0.5C 529.151,0.970083 530.985,2.30342 533,3.5C 585.905,66.3151 638.571,129.315 691,192.5C 691.889,195.687 692.722,198.853 693.5,202C 692.722,205.147 691.889,208.313 691,211.5C 684.833,219 678.667,226.5 672.5,234C 665.08,238.611 658.246,237.777 652,231.5C 600,169.5 548,107.5 496,45.5C 491.966,38.6681 491.633,31.6681 495,24.5C 501.341,14.999 508.841,6.66571 517.5,-0.5 Z"/></g>
<g><path style="opacity:0.978" fill="#fefffe" d="M -0.5,502.5 C -0.5,498.167 -0.5,493.833 -0.5,489.5C 1.47069,485.587 3.97069,481.92 7,478.5C 58.5233,417.945 109.69,357.111 160.5,296C 163.327,294.377 166.327,293.21 169.5,292.5C 172.673,293.21 175.673,294.377 178.5,296C 184.452,302.74 190.285,309.574 196,316.5C 201.114,326.72 199.781,336.054 192,344.5C 140.381,405.574 88.8811,466.741 37.5,528C 31.5,531.333 25.5,531.333 19.5,528C 12.1787,519.865 5.51206,511.365 -0.5,502.5 Z"/></g>
<g><path style="opacity:0.978" fill="#fefffe" d="M 662.5,292.5 C 666.035,293.052 669.368,294.218 672.5,296C 677.978,303.112 683.811,309.946 690,316.5C 692.886,323.362 693.22,330.362 691,337.5C 638.571,400.685 585.905,463.685 533,526.5C 526.869,531.196 520.369,531.696 513.5,528C 507.214,520.592 501.047,513.092 495,505.5C 491.627,498.349 491.96,491.349 496,484.5C 548,422.5 600,360.5 652,298.5C 655.069,295.554 658.569,293.554 662.5,292.5 Z"/></g>
<g><path style="opacity:0.978" fill="#fefffe" d="M 939.5,489.5 C 939.5,493.833 939.5,498.167 939.5,502.5C 933.46,511.387 926.793,519.887 919.5,528C 913.5,531.333 907.5,531.333 901.5,528C 847.247,464.418 793.747,400.251 741,335.5C 738.92,328.894 739.586,322.561 743,316.5C 748.715,309.574 754.548,302.74 760.5,296C 766.994,291.38 773.328,291.713 779.5,297C 829.957,357.793 880.791,418.293 932,478.5C 935.029,481.92 937.529,485.587 939.5,489.5 Z"/></g>
<g><path style="opacity:0.978" fill="#fefffe" d="M 270.5,293.5 C 276.932,292.347 282.432,294.014 287,298.5C 339,360.5 391,422.5 443,484.5C 447.04,491.349 447.373,498.349 444,505.5C 437.953,513.092 431.786,520.592 425.5,528C 418.783,532.271 412.283,531.771 406,526.5C 353.667,464.167 301.333,401.833 249,339.5C 245.14,332.622 244.807,325.622 248,318.5C 254.609,309.216 262.109,300.882 270.5,293.5 Z"/></g>
<g><path style="opacity:0.978" fill="#fefffe" d="M 280.5,824.5 C 277.167,824.5 273.833,824.5 270.5,824.5C 262.109,817.118 254.609,808.784 248,799.5C 244.807,792.378 245.14,785.378 249,778.5C 301.833,715.667 354.667,652.833 407.5,590C 410.309,588.342 413.309,587.175 416.5,586.5C 419.691,587.175 422.691,588.342 425.5,590C 431.452,596.74 437.285,603.574 443,610.5C 447.129,617.337 447.462,624.337 444,631.5C 393.333,692.167 342.667,752.833 292,813.5C 288.578,817.766 284.744,821.433 280.5,824.5 Z"/></g>
<g><path style="opacity:0.978" fill="#fefffe" d="M 668.5,824.5 C 665.167,824.5 661.833,824.5 658.5,824.5C 654.256,821.433 650.422,817.766 647,813.5C 597.043,753.207 546.709,693.207 496,633.5C 491.333,625.833 491.333,618.167 496,610.5C 501.715,603.574 507.548,596.74 513.5,590C 520.87,585.371 527.703,586.205 534,592.5C 586,654.5 638,716.5 690,778.5C 694.324,786.61 693.991,794.61 689,802.5C 682.95,810.711 676.117,818.045 668.5,824.5 Z"/></g>
</svg>
