<?xml version="1.0" encoding="UTF-8"?>
<!DOCTYPE svg PUBLIC "-//W3C//DTD SVG 1.1//EN" "http://www.w3.org/Graphics/SVG/1.1/DTD/svg11.dtd">
<svg xmlns="http://www.w3.org/2000/svg" version="1.1" width="902px" height="314px" style="shape-rendering:geometricPrecision; text-rendering:geometricPrecision; image-rendering:optimizeQuality; fill-rule:evenodd; clip-rule:evenodd" xmlns:xlink="http://www.w3.org/1999/xlink">
<g><path style="opacity:0.196" fill="#a090a6" d="M 451.5,32.5 C 458.115,33.309 463.781,35.9757 468.5,40.5C 468.565,40.9382 468.399,41.2716 468,41.5C 466.184,39.5586 464.184,38.8919 462,39.5C 461.5,37.6667 460.333,36.5 458.5,36C 456.187,35.338 453.854,34.838 451.5,34.5C 451.5,33.8333 451.5,33.1667 451.5,32.5 Z"/></g>
<g><path style="opacity:1" fill="#ebe9ec" d="M 451.5,34.5 C 453.854,34.838 456.187,35.338 458.5,36C 460.333,36.5 461.5,37.6667 462,39.5C 464.184,38.8919 466.184,39.5586 468,41.5C 468.399,41.2716 468.565,40.9382 468.5,40.5C 469.833,41.1667 470.833,42.1667 471.5,43.5C 470.957,43.56 470.624,43.8933 470.5,44.5C 472.628,46.866 473.628,49.366 473.5,52C 473.333,52.5 473.167,53 473,53.5C 471.644,52.6198 470.144,52.2865 468.5,52.5C 468.167,51.5 467.5,50.8333 466.5,50.5C 465.073,47.2364 462.739,44.7364 459.5,43C 453.204,39.7906 446.538,37.7906 439.5,37C 441.274,36.0296 443.107,35.1963 445,34.5C 447.17,35.7201 449.337,35.7201 451.5,34.5 Z"/></g>
<g><path style="opacity:1" fill="#563b63" d="M 451.5,32.5 C 451.5,33.1667 451.5,33.8333 451.5,34.5C 449.337,35.7201 447.17,35.7201 445,34.5C 443.107,35.1963 441.274,36.0296 439.5,37C 446.538,37.7906 453.204,39.7906 459.5,43C 462.739,44.7364 465.073,47.2364 466.5,50.5C 457.092,41.0882 445.759,37.5882 432.5,40C 430.676,40.66 429.343,41.8267 428.5,43.5C 426.738,46.1417 426.405,45.975 427.5,43C 426.906,42.5357 426.239,42.369 425.5,42.5C 432.446,35.0674 441.113,31.7341 451.5,32.5 Z"/></g>
<g><path style="opacity:1" fill="#e1dde3" d="M 466.5,50.5 C 467.677,52.1026 467.511,53.436 466,54.5C 456.116,42.264 443.616,38.5974 428.5,43.5C 429.343,41.8267 430.676,40.66 432.5,40C 445.759,37.5882 457.092,41.0882 466.5,50.5 Z"/></g>
<g><path style="opacity:0.999" fill="#371945" d="M 466.5,50.5 C 467.5,50.8333 468.167,51.5 468.5,52.5C 468.5,53.1667 468.5,53.8333 468.5,54.5C 464.686,57.1521 463.519,60.8187 465,65.5C 466.039,66.7101 467.206,67.7101 468.5,68.5C 468.5,69.1667 468.167,69.5 467.5,69.5C 466.512,70.795 465.512,72.1283 464.5,73.5C 463.957,73.44 463.624,73.1067 463.5,72.5C 464.167,71.5 464.833,70.5 465.5,69.5C 462.025,64.8366 461.691,60.0033 464.5,55C 463.874,54.2496 463.374,53.4162 463,52.5C 462.562,57.2775 461.062,61.6108 458.5,65.5C 457.127,65.3433 455.793,65.51 454.5,66C 453.432,68.4381 452.098,70.6048 450.5,72.5C 441.605,76.8938 433.105,76.2272 425,70.5C 426.636,73.1378 427.802,76.1378 428.5,79.5C 423.687,76.4997 420.521,72.1664 419,66.5C 416.835,57.1823 419.002,49.1823 425.5,42.5C 426.239,42.369 426.906,42.5357 427.5,43C 426.405,45.975 426.738,46.1417 428.5,43.5C 443.616,38.5974 456.116,42.264 466,54.5C 467.511,53.436 467.677,52.1026 466.5,50.5 Z"/></g>
<g><path style="opacity:1" fill="#8066a0" d="M 433.5,45.5 C 436.187,45.3359 438.854,45.5026 441.5,46C 433.213,50.3998 428.213,57.2332 426.5,66.5C 422.051,57.0556 424.385,50.0556 433.5,45.5 Z"/></g>
<g><path style="opacity:1" fill="#e9e7ea" d="M 478.5,59.5 C 478.02,62.4432 477.02,65.1098 475.5,67.5C 469.978,68.1407 467.478,65.474 468,59.5C 468.68,57.487 470.013,56.1536 472,55.5C 474.059,57.0696 476.226,58.403 478.5,59.5 Z"/></g>
<g><path style="opacity:1" fill="#8268a3" d="M 455.5,56.5 C 458.685,56.7224 459.685,58.2224 458.5,61C 457.207,61.49 455.873,61.6567 454.5,61.5C 454.366,59.7085 454.699,58.0418 455.5,56.5 Z"/></g>
<g><path style="opacity:1" fill="#d0c9d3" d="M 468.5,54.5 C 468.938,54.4346 469.272,54.6012 469.5,55C 465.5,59.3333 465.5,63.6667 469.5,68C 469.272,68.3988 468.938,68.5654 468.5,68.5C 467.206,67.7101 466.039,66.7101 465,65.5C 463.519,60.8187 464.686,57.1521 468.5,54.5 Z"/></g>
<g><path style="opacity:1" fill="#756697" d="M 458.5,65.5 C 459.204,69.8027 457.87,73.3027 454.5,76C 451.51,76.8469 450.176,75.6802 450.5,72.5C 452.098,70.6048 453.432,68.4381 454.5,66C 455.793,65.51 457.127,65.3433 458.5,65.5 Z"/></g>
<g><path style="opacity:1" fill="#18192f" d="M 464.5,73.5 C 460.769,78.5552 455.769,81.5552 449.5,82.5C 444.538,82.745 439.705,82.0784 435,80.5C 433.97,80.8361 433.47,81.5028 433.5,82.5C 431.336,82.2785 429.67,81.2785 428.5,79.5C 427.802,76.1378 426.636,73.1378 425,70.5C 433.105,76.2272 441.605,76.8938 450.5,72.5C 450.176,75.6802 451.51,76.8469 454.5,76C 457.87,73.3027 459.204,69.8027 458.5,65.5C 461.062,61.6108 462.562,57.2775 463,52.5C 463.374,53.4162 463.874,54.2496 464.5,55C 461.691,60.0033 462.025,64.8366 465.5,69.5C 464.833,70.5 464.167,71.5 463.5,72.5C 463.624,73.1067 463.957,73.44 464.5,73.5 Z"/></g>
<g><path style="opacity:1" fill="#e0dce2" d="M 473.5,77.5 C 474.167,77.5 474.5,77.8333 474.5,78.5C 472.634,79.0138 470.8,79.6805 469,80.5C 467.174,79.9896 467.007,79.1562 468.5,78C 470.134,77.5065 471.801,77.3398 473.5,77.5 Z"/></g>
<g><path style="opacity:0.843" fill="#f2f2f3" d="M 474.5,78.5 C 479.123,79.0402 481.456,81.7069 481.5,86.5C 479.911,88.3056 477.911,89.6389 475.5,90.5C 474.215,87.429 472.549,84.5957 470.5,82C 472.093,81.0513 473.426,79.8846 474.5,78.5 Z"/></g>
<g><path style="opacity:1" fill="#aa9eb0" d="M 467.5,69.5 C 465.448,76.0548 461.114,80.5548 454.5,83C 452.613,83.7796 450.946,83.6129 449.5,82.5C 455.769,81.5552 460.769,78.5552 464.5,73.5C 465.512,72.1283 466.512,70.795 467.5,69.5 Z"/></g>
<g><path style="opacity:0.981" fill="#b8bec8" d="M 422.5,80.5 C 423.938,94.3955 417.605,100.729 403.5,99.5C 402.604,98.4937 401.938,98.4937 401.5,99.5C 398.337,94.5065 395.67,89.1731 393.5,83.5C 393.977,82.5224 394.643,81.6891 395.5,81C 404.637,79.4345 413.637,79.2679 422.5,80.5 Z"/></g>
<g><path style="opacity:1" fill="#eceaed" d="M 453.5,85.5 C 457.422,85.155 461.255,84.4884 465,83.5C 469.215,86.4723 470.548,90.4723 469,95.5C 467.644,96.3802 466.144,96.7135 464.5,96.5C 464.768,94.901 464.434,93.5676 463.5,92.5C 461.779,89.7938 459.446,89.1271 456.5,90.5C 453.29,89.6457 450.124,88.6457 447,87.5C 444.277,88.5415 441.777,90.0415 439.5,92C 438.207,92.49 436.873,92.6567 435.5,92.5C 435.657,91.1266 435.49,89.7932 435,88.5C 433.534,92.0286 432.534,95.6952 432,99.5C 431.722,98.5842 431.222,97.9175 430.5,97.5C 429.784,94.4018 428.784,91.4018 427.5,88.5C 429.246,86.7484 431.246,85.4151 433.5,84.5C 434.695,84.3225 435.862,83.9891 437,83.5C 442.352,85.2383 447.852,85.905 453.5,85.5 Z"/></g>
<g><path style="opacity:1" fill="#e08b12" d="M 415.5,88.5 C 413.243,88.9617 411.243,89.9617 409.5,91.5C 411.617,92.4693 413.617,92.136 415.5,90.5C 415.021,92.8445 413.521,94.1778 411,94.5C 408.865,93.8729 406.698,93.3729 404.5,93C 405.5,92.6667 406.5,92.3333 407.5,92C 406.02,86.8116 408.02,84.8116 413.5,86C 414.381,86.7083 415.047,87.5416 415.5,88.5 Z"/></g>
<g><path style="opacity:0.999" fill="#9793a6" d="M 422.5,80.5 C 425.166,82.4894 426.833,85.156 427.5,88.5C 428.784,91.4018 429.784,94.4018 430.5,97.5C 430.5,98.5 430.5,99.5 430.5,100.5C 421.318,100.827 412.318,100.493 403.5,99.5C 417.605,100.729 423.938,94.3955 422.5,80.5 Z"/></g>
<g><path style="opacity:1" fill="#bc9456" d="M 415.5,90.5 C 413.617,92.136 411.617,92.4693 409.5,91.5C 411.243,89.9617 413.243,88.9617 415.5,88.5C 419.236,87.5233 419.236,88.19 415.5,90.5 Z"/></g>
<g><path style="opacity:1" fill="#c4bcc7" d="M 463.5,92.5 C 464.434,93.5676 464.768,94.901 464.5,96.5C 466.144,96.7135 467.644,96.3802 469,95.5C 470.548,90.4723 469.215,86.4723 465,83.5C 461.255,84.4884 457.422,85.155 453.5,85.5C 468.829,77.5981 475.329,82.5981 473,100.5C 469.545,101.791 466.045,101.791 462.5,100.5C 463.393,97.9159 463.726,95.2492 463.5,92.5 Z"/></g>
<g><path style="opacity:0.949" fill="#d0c9d2" d="M 482.5,88.5 C 484.783,92.5196 486.45,96.8529 487.5,101.5C 486.883,101.389 486.383,101.056 486,100.5C 482.971,103.93 479.137,105.596 474.5,105.5C 474.513,100.74 475.18,96.0738 476.5,91.5C 478.527,90.4867 480.527,89.4867 482.5,88.5 Z"/></g>
<g><path style="opacity:0.606" fill="#cec9d2" d="M 417.5,107.5 C 417.5,107.833 417.5,108.167 417.5,108.5C 417.047,109.458 416.381,110.292 415.5,111C 412.408,111.736 409.408,111.569 406.5,110.5C 406.828,105.282 409.494,103.116 414.5,104C 416.426,104.422 417.426,105.589 417.5,107.5 Z"/></g>
<g><path style="opacity:0.905" fill="#d9e8ee" d="M 427.5,106.5 C 427.833,106.5 428.167,106.5 428.5,106.5C 429.5,107.833 430.5,107.833 431.5,106.5C 433.5,106.5 434.5,107.5 434.5,109.5C 434.657,110.873 434.49,112.207 434,113.5C 431.672,114.999 429.505,116.666 427.5,118.5C 424.925,117.432 422.758,115.765 421,113.5C 419.647,114.685 418.48,116.019 417.5,117.5C 415.232,116.456 412.899,116.289 410.5,117C 409.295,118.376 407.962,119.542 406.5,120.5C 267.114,129.547 143.78,178.047 36.5,266C 23.6946,276.971 11.3613,288.471 -0.5,300.5C -0.5,297.833 -0.5,295.167 -0.5,292.5C 116.376,180.211 256.376,120.378 419.5,113C 421.986,112.344 423.653,110.844 424.5,108.5C 425.71,108.068 426.71,107.401 427.5,106.5 Z"/></g>
<g><path style="opacity:1" fill="#c7c0ca" d="M 434.5,109.5 C 436.098,112.495 438.098,115.329 440.5,118C 436.181,121.064 431.847,121.23 427.5,118.5C 429.505,116.666 431.672,114.999 434,113.5C 434.49,112.207 434.657,110.873 434.5,109.5 Z"/></g>
<g><path style="opacity:0.918" fill="#d8e9ee" d="M 485.5,113.5 C 647.658,123.276 786.324,184.61 901.5,297.5C 901.5,300.5 901.5,303.5 901.5,306.5C 881.695,287.352 861.029,269.352 839.5,252.5C 776.976,204.238 707.643,169.238 631.5,147.5C 631.611,146.883 631.944,146.383 632.5,146C 579.559,130.284 525.892,121.784 471.5,120.5C 476.167,118.167 480.833,115.833 485.5,113.5 Z"/></g>
<g><path style="opacity:1" fill="#cff1f6" d="M 406.5,120.5 C 406.167,121.833 405.833,123.167 405.5,124.5C 310.608,130.646 221.608,156.479 138.5,202C 120.341,212.058 103.007,223.058 86.5,235C 81.071,238.369 76.071,242.202 71.5,246.5C 58.8659,255.498 46.5326,264.998 34.5,275C 22.6083,286.061 10.9416,297.228 -0.5,308.5C -0.5,305.833 -0.5,303.167 -0.5,300.5C 11.3613,288.471 23.6946,276.971 36.5,266C 143.78,178.047 267.114,129.547 406.5,120.5 Z"/></g>
<g><path style="opacity:1" fill="#cef0f6" d="M 631.5,147.5 C 578.833,133.118 525.166,124.785 470.5,122.5C 470.328,121.508 470.662,120.842 471.5,120.5C 525.892,121.784 579.559,130.284 632.5,146C 631.944,146.383 631.611,146.883 631.5,147.5 Z"/></g>
<g><path style="opacity:1" fill="#44dff6" d="M 470.5,122.5 C 525.166,124.785 578.833,133.118 631.5,147.5C 707.643,169.238 776.976,204.238 839.5,252.5C 835.5,251.167 831.5,249.833 827.5,248.5C 801.371,237.351 775.205,226.351 749,215.5C 747.951,217.107 746.451,217.773 744.5,217.5C 744.762,216.022 744.429,214.689 743.5,213.5C 731.787,207.692 719.454,204.025 706.5,202.5C 696.664,201.833 687.33,199.333 678.5,195C 675.167,190.333 671.167,186.333 666.5,183C 646.548,170.178 625.215,160.345 602.5,153.5C 588.04,148.236 573.374,143.569 558.5,139.5C 552.506,140.663 549.006,144.329 548,150.5C 546.048,152.894 543.548,154.394 540.5,155C 523.487,156.633 506.487,156.3 489.5,154C 484.677,151.679 484.177,148.512 488,144.5C 491.349,140.984 494.849,137.651 498.5,134.5C 486.735,132.014 475.068,129.68 463.5,127.5C 464.992,124.677 467.326,123.01 470.5,122.5 Z"/></g>
<g><path style="opacity:1" fill="#4e335e" d="M 471.5,43.5 C 475.625,47.9241 477.958,53.2574 478.5,59.5C 476.226,58.403 474.059,57.0696 472,55.5C 470.013,56.1536 468.68,57.487 468,59.5C 467.478,65.474 469.978,68.1407 475.5,67.5C 474.833,70.8333 474.167,74.1667 473.5,77.5C 471.801,77.3398 470.134,77.5065 468.5,78C 467.007,79.1562 467.174,79.9896 469,80.5C 470.8,79.6805 472.634,79.0138 474.5,78.5C 473.426,79.8846 472.093,81.0513 470.5,82C 472.549,84.5957 474.215,87.429 475.5,90.5C 477.911,89.6389 479.911,88.3056 481.5,86.5C 481.833,87.1667 482.167,87.8333 482.5,88.5C 480.527,89.4867 478.527,90.4867 476.5,91.5C 475.18,96.0738 474.513,100.74 474.5,105.5C 479.137,105.596 482.971,103.93 486,100.5C 486.383,101.056 486.883,101.389 487.5,101.5C 485.857,105.3 485.19,109.3 485.5,113.5C 480.833,115.833 476.167,118.167 471.5,120.5C 470.662,120.842 470.328,121.508 470.5,122.5C 467.326,123.01 464.992,124.677 463.5,127.5C 461.4,130.104 459.067,132.604 456.5,135C 452.345,136.054 448.678,135.22 445.5,132.5C 443.022,128.878 441.689,124.878 441.5,120.5C 438.762,120.851 436.096,121.518 433.5,122.5C 430.757,125.654 428.257,128.988 426,132.5C 425.107,133.081 424.107,133.415 423,133.5C 416.683,131.425 410.849,128.425 405.5,124.5C 405.833,123.167 406.167,121.833 406.5,120.5C 407.962,119.542 409.295,118.376 410.5,117C 412.899,116.289 415.232,116.456 417.5,117.5C 418.48,116.019 419.647,114.685 421,113.5C 422.758,115.765 424.925,117.432 427.5,118.5C 431.847,121.23 436.181,121.064 440.5,118C 438.098,115.329 436.098,112.495 434.5,109.5C 434.5,107.5 433.5,106.5 431.5,106.5C 431.158,105.662 430.492,105.328 429.5,105.5C 429.577,104.25 430.244,103.417 431.5,103C 426.798,102.172 422.131,102.338 417.5,103.5C 418.705,104.995 418.705,106.328 417.5,107.5C 417.426,105.589 416.426,104.422 414.5,104C 409.494,103.116 406.828,105.282 406.5,110.5C 401.898,108.395 400.231,104.728 401.5,99.5C 401.938,98.4937 402.604,98.4937 403.5,99.5C 412.318,100.493 421.318,100.827 430.5,100.5C 430.5,99.5 430.5,98.5 430.5,97.5C 431.222,97.9175 431.722,98.5842 432,99.5C 432.534,95.6952 433.534,92.0286 435,88.5C 435.49,89.7932 435.657,91.1266 435.5,92.5C 436.873,92.6567 438.207,92.49 439.5,92C 441.777,90.0415 444.277,88.5415 447,87.5C 450.124,88.6457 453.29,89.6457 456.5,90.5C 459.446,89.1271 461.779,89.7938 463.5,92.5C 463.726,95.2492 463.393,97.9159 462.5,100.5C 466.045,101.791 469.545,101.791 473,100.5C 475.329,82.5981 468.829,77.5981 453.5,85.5C 447.852,85.905 442.352,85.2383 437,83.5C 435.862,83.9891 434.695,84.3225 433.5,84.5C 433.5,83.8333 433.5,83.1667 433.5,82.5C 433.47,81.5028 433.97,80.8361 435,80.5C 439.705,82.0784 444.538,82.745 449.5,82.5C 450.946,83.6129 452.613,83.7796 454.5,83C 461.114,80.5548 465.448,76.0548 467.5,69.5C 468.167,69.5 468.5,69.1667 468.5,68.5C 468.938,68.5654 469.272,68.3988 469.5,68C 465.5,63.6667 465.5,59.3333 469.5,55C 469.272,54.6012 468.938,54.4346 468.5,54.5C 468.5,53.8333 468.5,53.1667 468.5,52.5C 470.144,52.2865 471.644,52.6198 473,53.5C 473.167,53 473.333,52.5 473.5,52C 473.628,49.366 472.628,46.866 470.5,44.5C 470.624,43.8933 470.957,43.56 471.5,43.5 Z M 429.5,105.5 C 430.492,105.328 431.158,105.662 431.5,106.5C 430.5,107.833 429.5,107.833 428.5,106.5C 428.5,105.833 428.833,105.5 429.5,105.5 Z M 427.5,106.5 C 426.71,107.401 425.71,108.068 424.5,108.5C 424.5,107.5 424.5,106.5 424.5,105.5C 425.791,105.263 426.791,105.596 427.5,106.5 Z"/></g>
<g><path style="opacity:1" fill="#c8c0cb" d="M 425.5,119.5 C 427.482,120.491 429.482,121.491 431.5,122.5C 429.471,126.529 426.471,129.529 422.5,131.5C 417.447,130.14 412.781,127.973 408.5,125C 407.209,123.708 407.209,122.542 408.5,121.5C 411.863,125.297 416.196,126.463 421.5,125C 423.464,123.549 424.797,121.716 425.5,119.5 Z"/></g>
<g><path style="opacity:1" fill="#e8e5e9" d="M 443.5,119.5 C 446.325,119.081 448.491,120.081 450,122.5C 452.912,125.987 454.412,129.987 454.5,134.5C 450.354,134.171 447.187,132.171 445,128.5C 443.711,125.649 443.211,122.649 443.5,119.5 Z"/></g>
<g><path style="opacity:1" fill="#dfdbe1" d="M 451.5,116.5 C 456.243,116.005 459.41,118.338 461,123.5C 462.048,127.48 460.715,130.48 457,132.5C 454.952,126.897 451.786,122.064 447.5,118C 449.736,117.921 451.07,117.421 451.5,116.5 Z"/></g>
<g><path style="opacity:1" fill="#f6f5f6" d="M 425.5,119.5 C 424.797,121.716 423.464,123.549 421.5,125C 416.196,126.463 411.863,125.297 408.5,121.5C 408.953,120.542 409.619,119.708 410.5,119C 413.23,118.272 415.897,118.438 418.5,119.5C 419.281,118.263 420.281,117.263 421.5,116.5C 422.852,117.524 424.185,118.524 425.5,119.5 Z"/></g>
<g><path style="opacity:1" fill="#efedf0" d="M 459.5,103.5 C 462.522,103.981 465.522,104.647 468.5,105.5C 469.802,112.245 467.135,116.911 460.5,119.5C 458.683,117.182 456.683,115.016 454.5,113C 456.188,110.981 458.188,109.314 460.5,108C 455.892,108.319 452.559,110.652 450.5,115C 442.822,118.658 438.156,116.158 436.5,107.5C 441.5,107.5 446.5,107.5 451.5,107.5C 453.735,107.795 455.735,107.461 457.5,106.5C 458.906,106.027 459.573,105.027 459.5,103.5 Z"/></g>
<g><path style="opacity:1" fill="#c6bec9" d="M 475.5,106.5 C 477.833,106.5 480.167,106.5 482.5,106.5C 483.603,111.624 481.436,114.957 476,116.5C 475.5,116.167 475,115.833 474.5,115.5C 475.407,112.579 475.74,109.579 475.5,106.5 Z"/></g>
<g><path style="opacity:1" fill="#877190" d="M 457.5,101.5 C 456.414,101.62 455.747,102.287 455.5,103.5C 455.747,104.713 456.414,105.38 457.5,105.5C 457.5,105.833 457.5,106.167 457.5,106.5C 455.735,107.461 453.735,107.795 451.5,107.5C 450.282,106.839 448.949,106.172 447.5,105.5C 449.421,104.359 451.421,104.192 453.5,105C 452.304,105.654 452.304,106.154 453.5,106.5C 454.466,104.604 454.799,102.604 454.5,100.5C 455.791,100.263 456.791,100.596 457.5,101.5 Z"/></g>
<g><path style="opacity:1" fill="#c7bfca" d="M 459.5,103.5 C 463.943,103.277 468.61,103.277 473.5,103.5C 475.788,113.255 472.455,120.255 463.5,124.5C 462.237,122.971 461.237,121.305 460.5,119.5C 467.135,116.911 469.802,112.245 468.5,105.5C 465.522,104.647 462.522,103.981 459.5,103.5 Z"/></g>
<g><path style="opacity:0.783" fill="#786a86" d="M 429.5,105.5 C 428.833,105.5 428.5,105.833 428.5,106.5C 428.167,106.5 427.833,106.5 427.5,106.5C 426.791,105.596 425.791,105.263 424.5,105.5C 424.5,106.5 424.5,107.5 424.5,108.5C 422.167,108.5 419.833,108.5 417.5,108.5C 417.5,108.167 417.5,107.833 417.5,107.5C 418.705,106.328 418.705,104.995 417.5,103.5C 422.131,102.338 426.798,102.172 431.5,103C 430.244,103.417 429.577,104.25 429.5,105.5 Z"/></g>
<g><path style="opacity:1" fill="#b6aabb" d="M 434.5,104.5 C 438.226,104.177 441.893,104.511 445.5,105.5C 443.667,105.833 441.833,106.167 440,106.5C 437.705,106.453 435.871,105.787 434.5,104.5 Z"/></g>
<g><path style="opacity:1" fill="#f3f2f4" d="M 457.5,101.5 C 457.5,102.833 457.5,104.167 457.5,105.5C 456.414,105.38 455.747,104.713 455.5,103.5C 455.747,102.287 456.414,101.62 457.5,101.5 Z"/></g>
<g><path style="opacity:1" fill="#b1b3c2" d="M 432.5,101.5 C 439.2,101.17 445.866,101.503 452.5,102.5C 449.167,102.833 445.833,103.167 442.5,103.5C 438.761,103.486 435.428,102.82 432.5,101.5 Z"/></g>
<g><path style="opacity:1" fill="#b2a7b6" d="M 440.5,98.5 C 441.675,98.281 442.675,98.6143 443.5,99.5C 442.277,100.614 440.944,100.781 439.5,100C 440.056,99.6174 440.389,99.1174 440.5,98.5 Z"/></g>
<g><path style="opacity:1" fill="#c7c0ca" d="M 462.5,96.5 C 461.766,97.7079 461.433,99.0413 461.5,100.5C 459.063,100.244 456.729,99.5771 454.5,98.5C 451.562,99.5748 448.562,99.7415 445.5,99C 444.219,97.5913 443.219,96.0913 442.5,94.5C 442.783,93.7109 443.283,93.0442 444,92.5C 443.734,95.8815 445.234,97.5482 448.5,97.5C 450.682,97.3028 452.682,96.6361 454.5,95.5C 457.115,96.2692 459.781,96.6025 462.5,96.5 Z"/></g>
<g><path style="opacity:1" fill="#f0f0f1" d="M 434.5,94.5 C 436.216,95.5739 437.216,97.2406 437.5,99.5C 436.675,100.386 435.675,100.719 434.5,100.5C 434.5,98.5 434.5,96.5 434.5,94.5 Z"/></g>
<g><path style="opacity:1" fill="#f1f0f2" d="M 462.5,96.5 C 459.781,96.6025 457.115,96.2692 454.5,95.5C 452.682,96.6361 450.682,97.3028 448.5,97.5C 445.234,97.5482 443.734,95.8815 444,92.5C 443.283,93.0442 442.783,93.7109 442.5,94.5C 440.44,98.197 439.273,98.197 439,94.5C 441.44,92.3779 444.107,90.7112 447,89.5C 451.724,90.9143 456.557,91.7477 461.5,92C 462.38,93.3561 462.714,94.8561 462.5,96.5 Z"/></g>
<g><path style="opacity:1" fill="#45dff6" d="M 445.5,132.5 C 437.473,135.216 429.306,137.549 421,139.5C 418.277,138.459 415.777,136.959 413.5,135C 400.034,131.685 386.367,130.685 372.5,132C 367.209,136.163 361.209,138.83 354.5,140C 351.263,144.739 347.263,148.572 342.5,151.5C 326.839,150.678 311.173,150.511 295.5,151C 291.58,152.313 287.58,153.313 283.5,154C 280.233,156.13 276.9,157.963 273.5,159.5C 264.124,164.015 254.457,167.849 244.5,171C 231.442,177.529 218.442,184.029 205.5,190.5C 202.697,187.583 200.363,184.25 198.5,180.5C 196.534,179.628 194.534,179.795 192.5,181C 183.184,184.625 175.184,190.292 168.5,198C 160.234,202.604 152.234,207.604 144.5,213C 129.718,217.273 115.385,222.606 101.5,229C 97.1406,230.503 96.6406,232.67 100,235.5C 100.513,238.827 99.0125,240.493 95.5,240.5C 93.5191,240.563 91.8524,239.896 90.5,238.5C 85.5705,244.545 81.4038,250.879 78,257.5C 81.6355,255.266 85.4689,253.432 89.5,252C 96.4921,251.5 103.492,251.334 110.5,251.5C 113.89,251.511 116.556,252.845 118.5,255.5C 116.885,258.45 114.885,261.116 112.5,263.5C 113.528,265.361 115.028,266.695 117,267.5C 117.944,270.347 117.444,272.847 115.5,275C 111.954,276.174 108.287,276.84 104.5,277C 102.766,279.7 100.432,281.7 97.5,283C 91.9246,284.515 86.2579,285.515 80.5,286C 76.1933,289.483 71.5266,292.317 66.5,294.5C 68.4928,289.178 70.4928,283.845 72.5,278.5C 70.6134,270.594 70.1134,262.594 71,254.5C 72.049,252.893 73.549,252.227 75.5,252.5C 75.3775,249.708 74.0442,247.708 71.5,246.5C 76.071,242.202 81.071,238.369 86.5,235C 103.007,223.058 120.341,212.058 138.5,202C 221.608,156.479 310.608,130.646 405.5,124.5C 410.849,128.425 416.683,131.425 423,133.5C 424.107,133.415 425.107,133.081 426,132.5C 428.257,128.988 430.757,125.654 433.5,122.5C 436.096,121.518 438.762,120.851 441.5,120.5C 441.689,124.878 443.022,128.878 445.5,132.5 Z"/></g>
<g><path style="opacity:1" fill="#1b81dd" d="M 463.5,127.5 C 475.068,129.68 486.735,132.014 498.5,134.5C 494.849,137.651 491.349,140.984 488,144.5C 484.177,148.512 484.677,151.679 489.5,154C 506.487,156.3 523.487,156.633 540.5,155C 543.548,154.394 546.048,152.894 548,150.5C 549.006,144.329 552.506,140.663 558.5,139.5C 573.374,143.569 588.04,148.236 602.5,153.5C 607.342,159.869 611.175,166.869 614,174.5C 614.667,177.167 614.667,179.833 614,182.5C 612.262,187.882 610.428,193.215 608.5,198.5C 608.833,198.833 609.167,199.167 609.5,199.5C 629.105,201.438 648.438,204.938 667.5,210C 676.618,214.984 686.285,218.484 696.5,220.5C 694.833,222.5 693.167,224.5 691.5,226.5C 686.087,231.585 680.754,236.585 675.5,241.5C 672.69,239.822 670.357,240.155 668.5,242.5C 633.778,249.398 598.778,254.564 563.5,258C 561.924,258.44 560.59,259.273 559.5,260.5C 558.818,259.757 558.151,259.091 557.5,258.5C 557.068,257.29 556.401,256.29 555.5,255.5C 554.833,255.5 554.5,255.167 554.5,254.5C 569,250.004 581.5,242.338 592,231.5C 598.221,221.724 603.388,211.391 607.5,200.5C 599.337,197.795 591.004,197.128 582.5,198.5C 575.308,221.194 560.642,237.027 538.5,246C 506.827,250.18 478.493,262.013 453.5,281.5C 453.167,281.333 452.833,281.167 452.5,281C 454.926,277.484 457.593,274.151 460.5,271C 468.231,266.802 476.231,263.136 484.5,260C 489.327,256.668 493.993,253.168 498.5,249.5C 506.061,243.111 514.061,237.278 522.5,232C 534.049,229.35 545.716,227.35 557.5,226C 569.75,220.002 575.75,210.169 575.5,196.5C 578.167,196.5 580.833,196.5 583.5,196.5C 584.951,192.098 585.951,187.598 586.5,183C 586.536,180.37 586.036,177.87 585,175.5C 580.014,181.284 576.848,187.95 575.5,195.5C 523.195,192.276 471.195,186.442 419.5,178C 410.044,175.736 400.71,173.07 391.5,170C 385.431,169.196 379.431,169.529 373.5,171C 336.679,186.052 298.345,195.218 258.5,198.5C 259.569,189.112 263.235,180.945 269.5,174C 282.899,169.709 296.566,166.375 310.5,164C 319.278,161.943 327.278,158.276 334.5,153C 337.365,152.817 340.031,152.317 342.5,151.5C 347.263,148.572 351.263,144.739 354.5,140C 361.209,138.83 367.209,136.163 372.5,132C 386.367,130.685 400.034,131.685 413.5,135C 415.777,136.959 418.277,138.459 421,139.5C 429.306,137.549 437.473,135.216 445.5,132.5C 448.678,135.22 452.345,136.054 456.5,135C 459.067,132.604 461.4,130.104 463.5,127.5 Z"/></g>
<g><path style="opacity:1" fill="#14b1ed" d="M 342.5,151.5 C 340.031,152.317 337.365,152.817 334.5,153C 327.278,158.276 319.278,161.943 310.5,164C 296.566,166.375 282.899,169.709 269.5,174C 263.235,180.945 259.569,189.112 258.5,198.5C 258.5,198.833 258.5,199.167 258.5,199.5C 255.753,199.813 253.086,199.48 250.5,198.5C 256.599,183.875 264.265,170.875 273.5,159.5C 276.9,157.963 280.233,156.13 283.5,154C 287.58,153.313 291.58,152.313 295.5,151C 311.173,150.511 326.839,150.678 342.5,151.5 Z"/></g>
<g><path style="opacity:1" fill="#14b1ec" d="M 602.5,153.5 C 625.215,160.345 646.548,170.178 666.5,183C 671.167,186.333 675.167,190.333 678.5,195C 687.33,199.333 696.664,201.833 706.5,202.5C 705.249,209.671 701.915,215.671 696.5,220.5C 686.285,218.484 676.618,214.984 667.5,210C 648.438,204.938 629.105,201.438 609.5,199.5C 609.167,199.167 608.833,198.833 608.5,198.5C 610.428,193.215 612.262,187.882 614,182.5C 614.667,179.833 614.667,177.167 614,174.5C 611.175,166.869 607.342,159.869 602.5,153.5 Z"/></g>
<g><path style="opacity:1" fill="#1b7edc" d="M 273.5,159.5 C 264.265,170.875 256.599,183.875 250.5,198.5C 253.086,199.48 255.753,199.813 258.5,199.5C 256.118,211.712 251.618,223.046 245,233.5C 241.22,237.972 236.387,240.139 230.5,240C 223.652,242.586 217.652,246.419 212.5,251.5C 212.167,251.333 211.833,251.167 211.5,251C 222,241.833 231.833,232 241,221.5C 245.094,215.388 247.928,208.721 249.5,201.5C 246.861,200.644 244.194,200.81 241.5,202C 226.715,206.896 212.048,212.062 197.5,217.5C 198.942,216.18 199.608,214.514 199.5,212.5C 200.59,210.239 202.256,208.406 204.5,207C 207.785,206.241 210.785,204.908 213.5,203C 218.833,197 224.167,191 229.5,185C 220.438,189.695 211.104,194.195 201.5,198.5C 201.062,198.565 200.728,198.399 200.5,198C 201.805,195.213 203.472,192.713 205.5,190.5C 218.442,184.029 231.442,177.529 244.5,171C 254.457,167.849 264.124,164.015 273.5,159.5 Z"/></g>
<g><path style="opacity:1" fill="#15b2ed" d="M 575.5,196.5 C 575.5,196.167 575.5,195.833 575.5,195.5C 576.848,187.95 580.014,181.284 585,175.5C 586.036,177.87 586.536,180.37 586.5,183C 585.951,187.598 584.951,192.098 583.5,196.5C 580.833,196.5 578.167,196.5 575.5,196.5 Z"/></g>
<g><path style="opacity:1" fill="#15afec" d="M 205.5,190.5 C 203.472,192.713 201.805,195.213 200.5,198C 200.728,198.399 201.062,198.565 201.5,198.5C 186.863,205.512 173.863,215.012 162.5,227C 163.448,227.483 164.448,227.649 165.5,227.5C 161.542,229.766 157.542,232.099 153.5,234.5C 152.761,234.631 152.094,234.464 151.5,234C 153.283,232.933 153.783,231.433 153,229.5C 151.595,231.107 149.928,232.44 148,233.5C 147.228,233.355 146.561,233.022 146,232.5C 144.174,234.179 142.008,235.346 139.5,236C 140.016,238.033 139.35,238.033 137.5,236C 139.211,234.867 139.711,233.367 139,231.5C 138.121,234.346 136.454,235.013 134,233.5C 133.333,234.5 133.333,235.5 134,236.5C 134.914,235.346 135.747,235.513 136.5,237C 134.973,238.368 133.473,238.868 132,238.5C 131.667,237.833 131.333,237.167 131,236.5C 129,238.5 127,240.5 125,242.5C 124.667,241.833 124.333,241.167 124,240.5C 120.434,242.075 116.934,243.742 113.5,245.5C 112.094,244.332 110.928,244.665 110,246.5C 108.417,246.507 106.751,246.174 105,245.5C 104.626,246.416 104.126,247.25 103.5,248C 101.122,248.511 98.7885,249.178 96.5,250C 101.351,250.174 106.018,250.674 110.5,251.5C 103.492,251.334 96.4921,251.5 89.5,252C 85.4689,253.432 81.6355,255.266 78,257.5C 81.4038,250.879 85.5705,244.545 90.5,238.5C 91.8524,239.896 93.5191,240.563 95.5,240.5C 99.0125,240.493 100.513,238.827 100,235.5C 96.6406,232.67 97.1406,230.503 101.5,229C 115.385,222.606 129.718,217.273 144.5,213C 152.234,207.604 160.234,202.604 168.5,198C 175.184,190.292 183.184,184.625 192.5,181C 194.534,179.795 196.534,179.628 198.5,180.5C 200.363,184.25 202.697,187.583 205.5,190.5 Z"/></g>
<g><path style="opacity:0.997" fill="#255abc" d="M 575.5,195.5 C 575.5,195.833 575.5,196.167 575.5,196.5C 575.75,210.169 569.75,220.002 557.5,226C 545.716,227.35 534.049,229.35 522.5,232C 514.061,237.278 506.061,243.111 498.5,249.5C 496.785,249.598 494.951,249.598 493,249.5C 492.502,253 490.502,254.667 487,254.5C 485.342,254.325 484.009,253.658 483,252.5C 480.546,254.013 478.879,253.346 478,250.5C 477.705,256.294 476.038,256.294 473,250.5C 472.577,251.956 471.744,252.456 470.5,252C 470.957,251.586 471.291,251.086 471.5,250.5C 470.5,249.667 469.5,248.833 468.5,248C 468.8,243.349 466.967,242.516 463,245.5C 462.023,242.741 462.856,240.741 465.5,239.5C 464.47,239.446 463.303,239.112 462,238.5C 462.195,236.874 462.195,235.207 462,233.5C 461.722,234.416 461.222,235.082 460.5,235.5C 460.631,234.761 460.464,234.094 460,233.5C 454.788,235.856 449.621,238.356 444.5,241C 442.117,249.266 438.284,256.766 433,263.5C 432.184,264.823 431.017,265.489 429.5,265.5C 429.372,263.91 428.705,262.577 427.5,261.5C 426.28,262.711 425.113,262.711 424,261.5C 423.667,262.167 423.333,262.833 423,263.5C 422.5,262.333 421.667,261.5 420.5,261C 421.823,260.184 422.489,259.017 422.5,257.5C 423.649,254.959 423.649,252.459 422.5,250C 414.287,248.446 406.287,246.28 398.5,243.5C 394.269,239.032 392.269,233.699 392.5,227.5C 393.644,214.66 395.477,201.993 398,189.5C 390.073,187.637 382.239,185.137 374.5,182C 331.709,177.958 312.376,197.458 316.5,240.5C 315.698,241.952 315.198,243.618 315,245.5C 314.667,245.167 314.333,244.833 314,244.5C 312.688,246.658 311.022,246.991 309,245.5C 306.169,245.958 303.836,247.292 302,249.5C 301.667,249.167 301.333,248.833 301,248.5C 300,249.833 299,251.167 298,252.5C 297.383,251.551 297.549,250.718 298.5,250C 297.833,249.833 297.167,249.667 296.5,249.5C 295.137,250.198 293.971,250.198 293,249.5C 292.667,250.167 292.333,250.833 292,251.5C 289.798,250.22 287.298,249.553 284.5,249.5C 282.541,252.606 280.374,252.94 278,250.5C 276.676,251.88 275.343,252.214 274,251.5C 273.667,252.167 273.333,252.833 273,253.5C 269.751,251.883 267.084,252.549 265,255.5C 264,252.833 263,252.833 262,255.5C 259.67,253.968 257.67,254.302 256,256.5C 255.692,255.692 255.192,255.025 254.5,254.5C 252.372,255.538 251.372,256.871 251.5,258.5C 248.873,254.522 245.373,254.522 241,258.5C 240.311,257.643 239.478,256.977 238.5,256.5C 237.28,257.711 236.113,257.711 235,256.5C 234.612,257.428 233.945,258.095 233,258.5C 229.872,259.204 226.706,259.704 223.5,260C 221.711,261.787 221.211,261.287 222,258.5C 223.255,257.789 224.421,256.956 225.5,256C 222.903,255.652 220.903,256.652 219.5,259C 219.185,260.902 219.185,262.902 219.5,265C 218.5,265.667 217.5,265.667 216.5,265C 217.833,264 217.833,263 216.5,262C 214.479,261.86 212.645,261.693 211,261.5C 208.966,263.032 206.799,264.365 204.5,265.5C 203.914,265.291 203.414,264.957 203,264.5C 201.92,266.996 200.586,269.33 199,271.5C 199.719,267.737 200.719,264.07 202,260.5C 200.748,262.001 199.748,263.668 199,265.5C 196.615,267.539 194.448,267.539 192.5,265.5C 193.025,264.808 193.692,264.308 194.5,264C 193.584,263.626 192.75,263.126 192,262.5C 191.667,264.833 191.333,267.167 191,269.5C 190.329,270.252 189.496,270.586 188.5,270.5C 188.693,267.525 187.693,265.025 185.5,263C 182.918,263.255 180.252,263.422 177.5,263.5C 177.394,266.079 178.061,268.412 179.5,270.5C 177.97,271.067 176.47,271.733 175,272.5C 174.667,271.833 174.333,271.167 174,270.5C 173.333,271.833 172.333,272.833 171,273.5C 170.014,272.829 168.847,272.829 167.5,273.5C 166.508,273.672 165.842,273.338 165.5,272.5C 166.404,271.791 166.737,270.791 166.5,269.5C 168.31,259.874 171.81,250.874 177,242.5C 183.023,234.32 189.19,226.32 195.5,218.5C 196.167,218.167 196.833,217.833 197.5,217.5C 212.048,212.062 226.715,206.896 241.5,202C 244.194,200.81 246.861,200.644 249.5,201.5C 247.928,208.721 245.094,215.388 241,221.5C 231.833,232 222,241.833 211.5,251C 211.833,251.167 212.167,251.333 212.5,251.5C 217.652,246.419 223.652,242.586 230.5,240C 236.387,240.139 241.22,237.972 245,233.5C 251.618,223.046 256.118,211.712 258.5,199.5C 258.5,199.167 258.5,198.833 258.5,198.5C 298.345,195.218 336.679,186.052 373.5,171C 379.431,169.529 385.431,169.196 391.5,170C 400.71,173.07 410.044,175.736 419.5,178C 471.195,186.442 523.195,192.276 575.5,195.5 Z M 416.5,199.5 C 425.653,199.515 425.82,200.849 417,203.5C 416.167,203.167 415.333,202.833 414.5,202.5C 415.612,201.735 416.279,200.735 416.5,199.5 Z"/></g>
<g><path style="opacity:1" fill="#42def6" d="M 199.5,212.5 C 193.57,215.09 187.57,217.59 181.5,220C 180.695,221.113 180.028,222.279 179.5,223.5C 174.939,225.141 170.272,226.474 165.5,227.5C 164.448,227.649 163.448,227.483 162.5,227C 173.863,215.012 186.863,205.512 201.5,198.5C 211.104,194.195 220.438,189.695 229.5,185C 224.167,191 218.833,197 213.5,203C 210.785,204.908 207.785,206.241 204.5,207C 202.256,208.406 200.59,210.239 199.5,212.5 Z"/></g>
<g><path style="opacity:1" fill="#4a807a" d="M 398.5,243.5 C 396.574,242.758 394.741,241.758 393,240.5C 392.226,236.853 391.559,233.186 391,229.5C 390.275,230.059 389.442,230.392 388.5,230.5C 386.61,229.388 384.61,228.554 382.5,228C 382.833,227.667 383.167,227.333 383.5,227C 379.998,226.344 379.998,225.011 383.5,223C 382.552,222.517 381.552,222.351 380.5,222.5C 379.649,217.293 378.316,217.293 376.5,222.5C 375.624,223.251 374.624,223.751 373.5,224C 377.746,227.673 377.246,230.507 372,232.5C 371.085,231.672 370.419,230.672 370,229.5C 368.667,229.5 367.333,229.5 366,229.5C 365.424,232.541 364.258,235.208 362.5,237.5C 361.417,236.635 361.251,235.635 362,234.5C 363.281,235.647 363.614,235.313 363,233.5C 359.472,232.586 358.972,230.419 361.5,227C 360.584,226.626 359.75,226.126 359,225.5C 357.823,227.176 356.323,228.509 354.5,229.5C 352.668,228.752 351.001,227.752 349.5,226.5C 347.174,227.926 346.008,229.593 346,231.5C 343.716,229.515 341.049,228.182 338,227.5C 336.221,229.017 336.721,229.851 339.5,230C 338.093,231.452 336.593,231.285 335,229.5C 334.667,229.833 334.333,230.167 334,230.5C 332.937,229.562 331.77,228.562 330.5,227.5C 329.246,230.304 327.579,232.137 325.5,233C 327.207,233.195 328.874,233.195 330.5,233C 329.833,233.667 329.167,234.333 328.5,235C 329.791,238.025 329.124,238.359 326.5,236C 326.833,235.667 327.167,235.333 327.5,235C 326.234,234.691 325.067,234.191 324,233.5C 323.667,233.833 323.333,234.167 323,234.5C 321.926,233.382 320.76,232.382 319.5,231.5C 321.165,231.166 322.999,231.166 325,231.5C 326.145,229.749 326.645,227.916 326.5,226C 326.167,225.833 325.833,225.667 325.5,225.5C 324.619,228.853 322.953,229.353 320.5,227C 320.833,226.667 321.167,226.333 321.5,226C 319.866,225.506 318.199,225.34 316.5,225.5C 316.291,230.623 316.958,235.623 318.5,240.5C 319.167,240.167 319.833,239.833 320.5,239.5C 322.543,240.44 324.543,241.44 326.5,242.5C 330.213,242.27 330.88,241.103 328.5,239C 330.409,238.552 331.576,239.385 332,241.5C 332.669,238.972 333.502,238.972 334.5,241.5C 333.66,243.284 334.493,244.284 337,244.5C 338.722,244.389 338.888,243.889 337.5,243C 338.227,241.601 338.727,240.101 339,238.5C 340.154,240.957 341.488,240.957 343,238.5C 343.5,239 344,239.5 344.5,240C 342.913,240.862 341.246,241.529 339.5,242C 340.833,242.333 342.167,242.667 343.5,243C 342.833,243.333 342.167,243.667 341.5,244C 342.624,244.249 343.624,244.749 344.5,245.5C 341.843,246.159 339.343,246.159 337,245.5C 337.333,248.167 337.667,250.833 338,253.5C 336.667,250.918 335.5,248.251 334.5,245.5C 332.5,246.833 330.5,246.833 328.5,245.5C 327.808,246.025 327.308,246.692 327,247.5C 326.692,246.692 326.192,246.025 325.5,245.5C 324.575,246.641 323.741,246.641 323,245.5C 322.16,248.464 321.16,248.797 320,246.5C 319.667,247.167 319.333,247.833 319,248.5C 318.014,247.829 316.847,247.829 315.5,248.5C 317.757,246.122 318.09,243.455 316.5,240.5C 312.376,197.458 331.709,177.958 374.5,182C 382.239,185.137 390.073,187.637 398,189.5C 395.477,201.993 393.644,214.66 392.5,227.5C 392.269,233.699 394.269,239.032 398.5,243.5 Z"/></g>
<g><path style="opacity:1" fill="#12adeb" d="M 199.5,212.5 C 199.608,214.514 198.942,216.18 197.5,217.5C 196.833,217.833 196.167,218.167 195.5,218.5C 190.166,220.167 184.833,221.834 179.5,223.5C 180.028,222.279 180.695,221.113 181.5,220C 187.57,217.59 193.57,215.09 199.5,212.5 Z"/></g>
<g><path style="opacity:0.999" fill="#245ebf" d="M 696.5,220.5 C 702.374,222.08 708.374,223.246 714.5,224C 731.272,224.651 747.939,226.318 764.5,229C 770.489,230.552 776.156,232.885 781.5,236C 796.619,250.286 813.286,262.452 831.5,272.5C 831.267,275.954 832.6,276.954 835.5,275.5C 837.001,276.752 838.668,277.752 840.5,278.5C 841.167,278.5 841.5,278.833 841.5,279.5C 846.819,291.479 853.153,302.813 860.5,313.5C 836.167,313.5 811.833,313.5 787.5,313.5C 787.783,312.711 788.283,312.044 789,311.5C 790.398,312.051 791.732,312.384 793,312.5C 793.9,311.23 795.066,310.23 796.5,309.5C 796.333,309.167 796.167,308.833 796,308.5C 794.355,308.307 792.521,308.14 790.5,308C 791.328,307.085 792.328,306.419 793.5,306C 791.782,305.654 790.115,305.154 788.5,304.5C 787.131,306.124 785.464,306.624 783.5,306C 784.328,305.085 785.328,304.419 786.5,304C 784.597,302.553 782.93,300.886 781.5,299C 780.216,298.316 779.049,298.483 778,299.5C 778.178,297.56 777.178,295.893 775,294.5C 774.098,298.28 771.931,299.613 768.5,298.5C 769.491,297.335 770.491,296.168 771.5,295C 771.095,294.055 770.428,293.388 769.5,293C 771.167,292 772.833,291 774.5,290C 771.19,290.229 769.356,288.729 769,285.5C 767.976,287.716 767.476,289.716 767.5,291.5C 766.205,290.902 764.872,290.402 763.5,290C 763.833,289.667 764.167,289.333 764.5,289C 760.863,289.316 758.196,287.982 756.5,285C 755.216,284.316 754.049,284.483 753,285.5C 752.333,284.5 752.333,283.5 753,282.5C 753.333,282.833 753.667,283.167 754,283.5C 755.785,282.76 757.618,282.093 759.5,281.5C 760.429,280.311 760.762,278.978 760.5,277.5C 762.767,277.854 764.101,277.521 764.5,276.5C 769.54,275.395 774.04,273.062 778,269.5C 778.617,268.551 778.451,267.718 777.5,267C 776.099,266.59 774.766,266.09 773.5,265.5C 771.95,264.28 770.284,264.28 768.5,265.5C 764.702,264.517 760.702,264.183 756.5,264.5C 753.77,263.183 750.937,263.183 748,264.5C 745.429,262.647 742.762,260.981 740,259.5C 738.984,260.634 738.317,260.301 738,258.5C 736.667,258.5 735.333,258.5 734,258.5C 733.667,259.167 733.333,259.833 733,260.5C 732.441,258.14 731.108,255.807 729,253.5C 727.602,254.051 726.268,254.384 725,254.5C 724.667,253.833 724.333,253.167 724,252.5C 722.16,253.833 721.66,253.666 722.5,252C 719.456,251.641 719.122,250.974 721.5,250C 719.671,248.462 718.171,248.962 717,251.5C 716.667,250.167 716.333,248.833 716,247.5C 714.431,247.847 712.598,248.014 710.5,248C 710.833,247.667 711.167,247.333 711.5,247C 710.146,245.706 708.812,245.54 707.5,246.5C 706.749,245.624 706.249,244.624 706,243.5C 705.667,243.833 705.333,244.167 705,244.5C 703.333,243.5 701.667,242.5 700,241.5C 698.093,241.421 696.093,241.754 694,242.5C 693.252,240.668 692.252,239.001 691,237.5C 689.187,238.609 688.354,237.942 688.5,235.5C 686.891,235.906 685.557,235.906 684.5,235.5C 687.263,232.748 689.597,229.748 691.5,226.5C 693.167,224.5 694.833,222.5 696.5,220.5 Z"/></g>
<g><path style="opacity:1" fill="#42ddf6" d="M 669.5,226.5 C 672.513,227.356 673.18,229.189 671.5,232C 670.552,232.483 669.552,232.649 668.5,232.5C 668.833,230.5 669.167,228.5 669.5,226.5 Z"/></g>
<g><path style="opacity:1" fill="#1a83dd" d="M 706.5,202.5 C 719.454,204.025 731.787,207.692 743.5,213.5C 744.429,214.689 744.762,216.022 744.5,217.5C 746.451,217.773 747.951,217.107 749,215.5C 775.205,226.351 801.371,237.351 827.5,248.5C 828.631,251.889 829.964,255.222 831.5,258.5C 831.03,259.463 830.363,259.463 829.5,258.5C 822.498,255.751 820.331,257.751 823,264.5C 827.259,268.836 830.759,268.503 833.5,263.5C 836.07,268.311 838.403,273.311 840.5,278.5C 838.668,277.752 837.001,276.752 835.5,275.5C 835.306,273.088 833.973,272.088 831.5,272.5C 813.286,262.452 796.619,250.286 781.5,236C 776.156,232.885 770.489,230.552 764.5,229C 747.939,226.318 731.272,224.651 714.5,224C 708.374,223.246 702.374,222.08 696.5,220.5C 701.915,215.671 705.249,209.671 706.5,202.5 Z"/></g>
<g><path style="opacity:1" fill="#42dff6" d="M 147.5,240.5 C 148.397,241.598 149.23,241.598 150,240.5C 150.87,241.108 151.37,241.941 151.5,243C 148.967,248.872 144.634,252.538 138.5,254C 139.793,254.49 141.127,254.657 142.5,254.5C 142.5,255.5 142.5,256.5 142.5,257.5C 139.995,256.583 137.662,256.583 135.5,257.5C 133.51,257.007 133.51,255.84 135.5,254C 129.239,252.933 126.906,249.433 128.5,243.5C 134.436,239.805 140.769,238.805 147.5,240.5 Z"/></g>
<g><path style="opacity:1" fill="#45dff4" d="M 735.5,240.5 C 737.225,240.843 737.725,241.843 737,243.5C 735.961,242.756 735.461,241.756 735.5,240.5 Z"/></g>
<g><path style="opacity:1" fill="#42daf5" d="M 675.5,241.5 C 679.75,242.558 681.084,245.058 679.5,249C 673.158,251.493 669.491,249.326 668.5,242.5C 670.357,240.155 672.69,239.822 675.5,241.5 Z"/></g>
<g><path style="opacity:1" fill="#1d7adb" d="M 195.5,218.5 C 189.19,226.32 183.023,234.32 177,242.5C 171.81,250.874 168.31,259.874 166.5,269.5C 164.204,269.804 163.871,270.804 165.5,272.5C 165.842,273.338 166.508,273.672 167.5,273.5C 172.7,282.373 178.7,290.707 185.5,298.5C 171.145,301.8 156.811,303.467 142.5,303.5C 142.5,302.833 142.5,302.167 142.5,301.5C 139.722,299.965 136.388,298.465 132.5,297C 133.357,297.689 134.023,298.522 134.5,299.5C 130.836,304.158 127.169,308.825 123.5,313.5C 111.167,313.5 98.8333,313.5 86.5,313.5C 90.038,303.133 96.3713,294.966 105.5,289C 114.759,288.648 123.426,290.815 131.5,295.5C 132.332,286.852 132.832,278.186 133,269.5C 133.53,265.417 134.363,261.417 135.5,257.5C 137.662,256.583 139.995,256.583 142.5,257.5C 142.5,256.5 142.5,255.5 142.5,254.5C 141.127,254.657 139.793,254.49 138.5,254C 144.634,252.538 148.967,248.872 151.5,243C 151.37,241.941 150.87,241.108 150,240.5C 149.23,241.598 148.397,241.598 147.5,240.5C 149.146,238.188 151.146,236.188 153.5,234.5C 157.542,232.099 161.542,229.766 165.5,227.5C 170.272,226.474 174.939,225.141 179.5,223.5C 184.833,221.834 190.166,220.167 195.5,218.5 Z"/></g>
<g><path style="opacity:0.993" fill="#84ecef" d="M 71.5,246.5 C 74.0442,247.708 75.3775,249.708 75.5,252.5C 73.549,252.227 72.049,252.893 71,254.5C 70.1134,262.594 70.6134,270.594 72.5,278.5C 70.4928,283.845 68.4928,289.178 66.5,294.5C 66.1667,295.5 65.5,296.167 64.5,296.5C 58.97,300.433 52.97,303.6 46.5,306C 48.4357,306.813 50.4357,307.313 52.5,307.5C 51.797,309.873 50.4637,311.873 48.5,313.5C 42.8333,313.5 37.1667,313.5 31.5,313.5C 32.2899,312.206 33.2899,311.039 34.5,310C 27.439,309.521 20.6057,308.021 14,305.5C 9.99934,307.575 6.49934,310.242 3.5,313.5C 2.16667,313.5 0.833333,313.5 -0.5,313.5C -0.5,311.833 -0.5,310.167 -0.5,308.5C 10.9416,297.228 22.6083,286.061 34.5,275C 46.5326,264.998 58.8659,255.498 71.5,246.5 Z"/></g>
<g><path style="opacity:0.983" fill="#17b2ed" d="M 827.5,248.5 C 831.5,249.833 835.5,251.167 839.5,252.5C 861.029,269.352 881.695,287.352 901.5,306.5C 901.5,308.833 901.5,311.167 901.5,313.5C 893.833,313.5 886.167,313.5 878.5,313.5C 874.818,307.305 870.151,301.805 864.5,297C 857.163,290.672 849.496,284.839 841.5,279.5C 841.5,278.833 841.167,278.5 840.5,278.5C 838.403,273.311 836.07,268.311 833.5,263.5C 832.084,261.821 830.75,260.154 829.5,258.5C 830.363,259.463 831.03,259.463 831.5,258.5C 829.964,255.222 828.631,251.889 827.5,248.5 Z"/></g>
<g><path style="opacity:1" fill="#42dff7" d="M 149.5,250.5 C 151.484,250.484 152.484,251.484 152.5,253.5C 151.678,256.718 150.012,257.218 147.5,255C 149.037,253.89 149.703,252.39 149.5,250.5 Z"/></g>
<g><path style="opacity:1" fill="#43def7" d="M 156.5,253.5 C 156.735,252.903 157.235,252.57 158,252.5C 162.76,254.562 162.593,255.895 157.5,256.5C 157.737,255.209 157.404,254.209 156.5,253.5 Z"/></g>
<g><path style="opacity:1" fill="#4c7a74" d="M 398.5,243.5 C 406.287,246.28 414.287,248.446 422.5,250C 423.649,252.459 423.649,254.959 422.5,257.5C 418.03,262.802 413.03,267.636 407.5,272C 389.167,285 370.833,298 352.5,311C 351.748,311.671 351.414,312.504 351.5,313.5C 344.167,313.5 336.833,313.5 329.5,313.5C 327.781,309.61 325.448,306.11 322.5,303C 316.454,301.409 310.621,299.242 305,296.5C 303.875,293.216 302.875,289.883 302,286.5C 296.733,279.738 295.067,272.072 297,263.5C 298.05,251.935 304.216,246.935 315.5,248.5C 316.847,247.829 318.014,247.829 319,248.5C 319.333,247.833 319.667,247.167 320,246.5C 321.16,248.797 322.16,248.464 323,245.5C 323.741,246.641 324.575,246.641 325.5,245.5C 326.192,246.025 326.692,246.692 327,247.5C 327.308,246.692 327.808,246.025 328.5,245.5C 330.5,246.833 332.5,246.833 334.5,245.5C 335.5,248.251 336.667,250.918 338,253.5C 337.667,250.833 337.333,248.167 337,245.5C 339.343,246.159 341.843,246.159 344.5,245.5C 343.624,244.749 342.624,244.249 341.5,244C 342.167,243.667 342.833,243.333 343.5,243C 342.167,242.667 340.833,242.333 339.5,242C 341.246,241.529 342.913,240.862 344.5,240C 344,239.5 343.5,239 343,238.5C 341.488,240.957 340.154,240.957 339,238.5C 338.727,240.101 338.227,241.601 337.5,243C 338.888,243.889 338.722,244.389 337,244.5C 334.493,244.284 333.66,243.284 334.5,241.5C 333.502,238.972 332.669,238.972 332,241.5C 331.576,239.385 330.409,238.552 328.5,239C 330.88,241.103 330.213,242.27 326.5,242.5C 324.543,241.44 322.543,240.44 320.5,239.5C 319.833,239.833 319.167,240.167 318.5,240.5C 316.958,235.623 316.291,230.623 316.5,225.5C 318.199,225.34 319.866,225.506 321.5,226C 321.167,226.333 320.833,226.667 320.5,227C 322.953,229.353 324.619,228.853 325.5,225.5C 325.833,225.667 326.167,225.833 326.5,226C 326.645,227.916 326.145,229.749 325,231.5C 322.999,231.166 321.165,231.166 319.5,231.5C 320.76,232.382 321.926,233.382 323,234.5C 323.333,234.167 323.667,233.833 324,233.5C 325.067,234.191 326.234,234.691 327.5,235C 327.167,235.333 326.833,235.667 326.5,236C 329.124,238.359 329.791,238.025 328.5,235C 329.167,234.333 329.833,233.667 330.5,233C 328.874,233.195 327.207,233.195 325.5,233C 327.579,232.137 329.246,230.304 330.5,227.5C 331.77,228.562 332.937,229.562 334,230.5C 334.333,230.167 334.667,229.833 335,229.5C 336.593,231.285 338.093,231.452 339.5,230C 336.721,229.851 336.221,229.017 338,227.5C 341.049,228.182 343.716,229.515 346,231.5C 346.008,229.593 347.174,227.926 349.5,226.5C 351.001,227.752 352.668,228.752 354.5,229.5C 356.323,228.509 357.823,227.176 359,225.5C 359.75,226.126 360.584,226.626 361.5,227C 358.972,230.419 359.472,232.586 363,233.5C 363.614,235.313 363.281,235.647 362,234.5C 361.251,235.635 361.417,236.635 362.5,237.5C 364.258,235.208 365.424,232.541 366,229.5C 367.333,229.5 368.667,229.5 370,229.5C 370.419,230.672 371.085,231.672 372,232.5C 377.246,230.507 377.746,227.673 373.5,224C 374.624,223.751 375.624,223.251 376.5,222.5C 378.316,217.293 379.649,217.293 380.5,222.5C 381.552,222.351 382.552,222.517 383.5,223C 379.998,225.011 379.998,226.344 383.5,227C 383.167,227.333 382.833,227.667 382.5,228C 384.61,228.554 386.61,229.388 388.5,230.5C 389.442,230.392 390.275,230.059 391,229.5C 391.559,233.186 392.226,236.853 393,240.5C 394.741,241.758 396.574,242.758 398.5,243.5 Z"/></g>
<g><path style="opacity:1" fill="#44e3f8" d="M 554.5,254.5 C 554.5,255.167 554.833,255.5 555.5,255.5C 554.597,257.62 553.263,257.954 551.5,256.5C 549.801,256.66 548.134,256.494 546.5,256C 548.937,254.625 551.603,254.125 554.5,254.5 Z"/></g>
<g><path style="opacity:1" fill="#46a1be" d="M 814.5,251.5 C 819.159,251.015 820.492,252.848 818.5,257C 812.546,258.227 811.212,256.394 814.5,251.5 Z"/></g>
<g><path style="opacity:1" fill="#4d7b72" d="M 460.5,235.5 C 459.594,242.979 456.761,249.645 452,255.5C 450.687,259.42 449.687,263.42 449,267.5C 448.208,269.587 447.041,271.421 445.5,273C 430.548,278.484 415.882,284.651 401.5,291.5C 404.448,288.034 407.948,284.367 412,280.5C 415.912,273.075 421.746,268.075 429.5,265.5C 431.017,265.489 432.184,264.823 433,263.5C 438.284,256.766 442.117,249.266 444.5,241C 449.621,238.356 454.788,235.856 460,233.5C 460.464,234.094 460.631,234.761 460.5,235.5 Z"/></g>
<g><path style="opacity:1" fill="#42def6" d="M 829.5,258.5 C 830.75,260.154 832.084,261.821 833.5,263.5C 830.759,268.503 827.259,268.836 823,264.5C 820.331,257.751 822.498,255.751 829.5,258.5 Z"/></g>
<g><path style="opacity:1" fill="#44dff7" d="M 171.5,258.5 C 174.966,259.372 175.133,261.039 172,263.5C 171.506,261.866 171.34,260.199 171.5,258.5 Z"/></g>
<g><path style="opacity:1" fill="#2656b9" d="M 316.5,240.5 C 318.09,243.455 317.757,246.122 315.5,248.5C 304.216,246.935 298.05,251.935 297,263.5C 295.067,272.072 296.733,279.738 302,286.5C 302.875,289.883 303.875,293.216 305,296.5C 310.621,299.242 316.454,301.409 322.5,303C 325.448,306.11 327.781,309.61 329.5,313.5C 308.5,313.5 287.5,313.5 266.5,313.5C 257.262,305.041 246.595,298.875 234.5,295C 226.167,294.333 217.833,294.333 209.5,295C 215.067,302.068 221.4,308.235 228.5,313.5C 204.833,313.5 181.167,313.5 157.5,313.5C 156.74,307.037 153.24,304.704 147,306.5C 146.444,308.885 146.61,311.218 147.5,313.5C 139.5,313.5 131.5,313.5 123.5,313.5C 127.169,308.825 130.836,304.158 134.5,299.5C 134.023,298.522 133.357,297.689 132.5,297C 136.388,298.465 139.722,299.965 142.5,301.5C 140.524,302.427 140.191,303.76 141.5,305.5C 142.298,305.043 142.631,304.376 142.5,303.5C 156.811,303.467 171.145,301.8 185.5,298.5C 178.7,290.707 172.7,282.373 167.5,273.5C 168.847,272.829 170.014,272.829 171,273.5C 172.333,272.833 173.333,271.833 174,270.5C 174.333,271.167 174.667,271.833 175,272.5C 176.47,271.733 177.97,271.067 179.5,270.5C 180.492,272.026 181.992,272.693 184,272.5C 186.008,272.693 187.508,272.026 188.5,270.5C 189.496,270.586 190.329,270.252 191,269.5C 191.333,267.167 191.667,264.833 192,262.5C 192.75,263.126 193.584,263.626 194.5,264C 193.692,264.308 193.025,264.808 192.5,265.5C 194.448,267.539 196.615,267.539 199,265.5C 199.748,263.668 200.748,262.001 202,260.5C 200.719,264.07 199.719,267.737 199,271.5C 200.586,269.33 201.92,266.996 203,264.5C 203.414,264.957 203.914,265.291 204.5,265.5C 206.799,264.365 208.966,263.032 211,261.5C 212.645,261.693 214.479,261.86 216.5,262C 217.833,263 217.833,264 216.5,265C 217.5,265.667 218.5,265.667 219.5,265C 219.185,262.902 219.185,260.902 219.5,259C 220.903,256.652 222.903,255.652 225.5,256C 224.421,256.956 223.255,257.789 222,258.5C 221.211,261.287 221.711,261.787 223.5,260C 226.706,259.704 229.872,259.204 233,258.5C 233.945,258.095 234.612,257.428 235,256.5C 236.113,257.711 237.28,257.711 238.5,256.5C 239.478,256.977 240.311,257.643 241,258.5C 245.373,254.522 248.873,254.522 251.5,258.5C 251.372,256.871 252.372,255.538 254.5,254.5C 255.192,255.025 255.692,255.692 256,256.5C 257.67,254.302 259.67,253.968 262,255.5C 263,252.833 264,252.833 265,255.5C 267.084,252.549 269.751,251.883 273,253.5C 273.333,252.833 273.667,252.167 274,251.5C 275.343,252.214 276.676,251.88 278,250.5C 280.374,252.94 282.541,252.606 284.5,249.5C 287.298,249.553 289.798,250.22 292,251.5C 292.333,250.833 292.667,250.167 293,249.5C 293.971,250.198 295.137,250.198 296.5,249.5C 297.167,249.667 297.833,249.833 298.5,250C 297.549,250.718 297.383,251.551 298,252.5C 299,251.167 300,249.833 301,248.5C 301.333,248.833 301.667,249.167 302,249.5C 303.836,247.292 306.169,245.958 309,245.5C 311.022,246.991 312.688,246.658 314,244.5C 314.333,244.833 314.667,245.167 315,245.5C 315.198,243.618 315.698,241.952 316.5,240.5 Z"/></g>
<g><path style="opacity:1" fill="#44d6ef" d="M 188.5,270.5 C 187.508,272.026 186.008,272.693 184,272.5C 181.992,272.693 180.492,272.026 179.5,270.5C 178.061,268.412 177.394,266.079 177.5,263.5C 180.252,263.422 182.918,263.255 185.5,263C 187.693,265.025 188.693,267.525 188.5,270.5 Z"/></g>
<g><path style="opacity:1" fill="#46a4be" d="M 773.5,265.5 C 773.582,267.252 772.749,268.252 771,268.5C 769.251,268.252 768.418,267.252 768.5,265.5C 770.284,264.28 771.95,264.28 773.5,265.5 Z"/></g>
<g><path style="opacity:1" fill="#2383e0" d="M 756.5,264.5 C 760.702,264.183 764.702,264.517 768.5,265.5C 768.418,267.252 769.251,268.252 771,268.5C 772.749,268.252 773.582,267.252 773.5,265.5C 774.766,266.09 776.099,266.59 777.5,267C 778.451,267.718 778.617,268.551 778,269.5C 774.04,273.062 769.54,275.395 764.5,276.5C 762.473,276.338 760.473,276.505 758.5,277C 759.337,278.011 759.67,279.178 759.5,280.5C 758.167,280.5 756.833,280.5 755.5,280.5C 755.5,279.5 755.5,278.5 755.5,277.5C 748.797,277.441 742.131,277.274 735.5,277C 732.113,280.053 728.447,282.72 724.5,285C 714.722,286.865 705.055,288.865 695.5,291C 706.5,284 717.5,277 728.5,270C 732.031,268.594 735.698,267.76 739.5,267.5C 741.756,270.305 743.423,269.972 744.5,266.5C 748.426,265.448 752.426,264.782 756.5,264.5 Z"/></g>
<g><path style="opacity:1" fill="#42d9f4" d="M 744.5,266.5 C 743.423,269.972 741.756,270.305 739.5,267.5C 740.703,263.036 742.37,262.702 744.5,266.5 Z"/></g>
<g><path style="opacity:1" fill="#2556b9" d="M 554.5,254.5 C 551.603,254.125 548.937,254.625 546.5,256C 548.134,256.494 549.801,256.66 551.5,256.5C 531.389,263.928 511.056,271.095 490.5,278C 476.05,288.951 462.384,300.785 449.5,313.5C 442.167,313.5 434.833,313.5 427.5,313.5C 435.081,306.421 441.748,298.587 447.5,290C 438.737,292.407 431.903,297.574 427,305.5C 425.921,308.063 425.421,310.729 425.5,313.5C 400.833,313.5 376.167,313.5 351.5,313.5C 351.414,312.504 351.748,311.671 352.5,311C 370.833,298 389.167,285 407.5,272C 413.03,267.636 418.03,262.802 422.5,257.5C 422.489,259.017 421.823,260.184 420.5,261C 421.667,261.5 422.5,262.333 423,263.5C 423.333,262.833 423.667,262.167 424,261.5C 425.113,262.711 426.28,262.711 427.5,261.5C 428.705,262.577 429.372,263.91 429.5,265.5C 421.746,268.075 415.912,273.075 412,280.5C 407.948,284.367 404.448,288.034 401.5,291.5C 415.882,284.651 430.548,278.484 445.5,273C 447.041,271.421 448.208,269.587 449,267.5C 449.687,263.42 450.687,259.42 452,255.5C 456.761,249.645 459.594,242.979 460.5,235.5C 461.222,235.082 461.722,234.416 462,233.5C 462.195,235.207 462.195,236.874 462,238.5C 463.303,239.112 464.47,239.446 465.5,239.5C 462.856,240.741 462.023,242.741 463,245.5C 466.967,242.516 468.8,243.349 468.5,248C 469.5,248.833 470.5,249.667 471.5,250.5C 471.291,251.086 470.957,251.586 470.5,252C 471.744,252.456 472.577,251.956 473,250.5C 476.038,256.294 477.705,256.294 478,250.5C 478.879,253.346 480.546,254.013 483,252.5C 484.009,253.658 485.342,254.325 487,254.5C 490.502,254.667 492.502,253 493,249.5C 494.951,249.598 496.785,249.598 498.5,249.5C 493.993,253.168 489.327,256.668 484.5,260C 476.231,263.136 468.231,266.802 460.5,271C 457.593,274.151 454.926,277.484 452.5,281C 452.833,281.167 453.167,281.333 453.5,281.5C 478.493,262.013 506.827,250.18 538.5,246C 560.642,237.027 575.308,221.194 582.5,198.5C 591.004,197.128 599.337,197.795 607.5,200.5C 603.388,211.391 598.221,221.724 592,231.5C 581.5,242.338 569,250.004 554.5,254.5 Z"/></g>
<g><path style="opacity:1" fill="#255abc" d="M 691.5,226.5 C 689.597,229.748 687.263,232.748 684.5,235.5C 685.557,235.906 686.891,235.906 688.5,235.5C 688.354,237.942 689.187,238.609 691,237.5C 692.252,239.001 693.252,240.668 694,242.5C 696.093,241.754 698.093,241.421 700,241.5C 701.667,242.5 703.333,243.5 705,244.5C 705.333,244.167 705.667,243.833 706,243.5C 706.249,244.624 706.749,245.624 707.5,246.5C 708.812,245.54 710.146,245.706 711.5,247C 711.167,247.333 710.833,247.667 710.5,248C 712.598,248.014 714.431,247.847 716,247.5C 716.333,248.833 716.667,250.167 717,251.5C 718.171,248.962 719.671,248.462 721.5,250C 719.122,250.974 719.456,251.641 722.5,252C 721.66,253.666 722.16,253.833 724,252.5C 724.333,253.167 724.667,253.833 725,254.5C 726.268,254.384 727.602,254.051 729,253.5C 731.108,255.807 732.441,258.14 733,260.5C 733.333,259.833 733.667,259.167 734,258.5C 735.333,258.5 736.667,258.5 738,258.5C 738.317,260.301 738.984,260.634 740,259.5C 742.762,260.981 745.429,262.647 748,264.5C 750.937,263.183 753.77,263.183 756.5,264.5C 752.426,264.782 748.426,265.448 744.5,266.5C 742.37,262.702 740.703,263.036 739.5,267.5C 735.698,267.76 732.031,268.594 728.5,270C 717.5,277 706.5,284 695.5,291C 705.055,288.865 714.722,286.865 724.5,285C 728.447,282.72 732.113,280.053 735.5,277C 742.131,277.274 748.797,277.441 755.5,277.5C 755.5,278.5 755.5,279.5 755.5,280.5C 756.833,280.5 758.167,280.5 759.5,280.5C 759.67,279.178 759.337,278.011 758.5,277C 760.473,276.505 762.473,276.338 764.5,276.5C 764.101,277.521 762.767,277.854 760.5,277.5C 760.762,278.978 760.429,280.311 759.5,281.5C 757.618,282.093 755.785,282.76 754,283.5C 753.667,283.167 753.333,282.833 753,282.5C 752.333,283.5 752.333,284.5 753,285.5C 754.049,284.483 755.216,284.316 756.5,285C 758.196,287.982 760.863,289.316 764.5,289C 764.167,289.333 763.833,289.667 763.5,290C 764.872,290.402 766.205,290.902 767.5,291.5C 767.476,289.716 767.976,287.716 769,285.5C 769.356,288.729 771.19,290.229 774.5,290C 772.833,291 771.167,292 769.5,293C 770.428,293.388 771.095,294.055 771.5,295C 770.491,296.168 769.491,297.335 768.5,298.5C 771.931,299.613 774.098,298.28 775,294.5C 777.178,295.893 778.178,297.56 778,299.5C 779.049,298.483 780.216,298.316 781.5,299C 782.93,300.886 784.597,302.553 786.5,304C 785.328,304.419 784.328,305.085 783.5,306C 785.464,306.624 787.131,306.124 788.5,304.5C 790.115,305.154 791.782,305.654 793.5,306C 792.328,306.419 791.328,307.085 790.5,308C 792.521,308.14 794.355,308.307 796,308.5C 796.167,308.833 796.333,309.167 796.5,309.5C 795.066,310.23 793.9,311.23 793,312.5C 791.732,312.384 790.398,312.051 789,311.5C 788.283,312.044 787.783,312.711 787.5,313.5C 751.833,313.5 716.167,313.5 680.5,313.5C 689.201,300.546 688.201,299.546 677.5,310.5C 676.25,310.423 675.417,309.756 675,308.5C 674.667,309.167 674.333,309.833 674,310.5C 672.031,308.613 669.698,307.28 667,306.5C 666.667,306.833 666.333,307.167 666,307.5C 664.287,306.122 662.953,304.455 662,302.5C 660.667,303.167 659.333,303.833 658,304.5C 657.683,302.699 657.016,302.366 656,303.5C 653.289,299.778 649.789,298.445 645.5,299.5C 644.403,297.771 643.237,296.104 642,294.5C 641.667,295.167 641.333,295.833 641,296.5C 640.333,295.167 639.667,295.167 639,296.5C 637.232,292.744 634.898,292.077 632,294.5C 630.513,293.747 630.346,292.914 631.5,292C 629.737,290.398 627.904,289.898 626,290.5C 624.488,288.043 623.154,288.043 622,290.5C 620.513,289.747 620.346,288.914 621.5,288C 619.08,288.988 616.747,288.655 614.5,287C 614.833,286.667 615.167,286.333 615.5,286C 614.069,285.535 612.903,284.701 612,283.5C 608.569,282.923 604.902,282.923 601,283.5C 600.333,282.167 599.667,280.833 599,279.5C 597.602,280.051 596.268,280.384 595,280.5C 593.184,278.559 591.184,277.892 589,278.5C 588.333,275.833 587.667,275.833 587,278.5C 584.961,275.469 582.295,274.469 579,275.5C 577.103,273.984 574.936,273.317 572.5,273.5C 572.649,274.552 572.483,275.552 572,276.5C 570.245,271.462 567.245,269.796 563,271.5C 562.25,270.874 561.416,270.374 560.5,270C 559.888,268.697 559.554,267.53 559.5,266.5C 558.169,267.592 557.336,268.926 557,270.5C 555.688,268.342 554.022,268.009 552,269.5C 550.615,268.449 549.615,267.116 549,265.5C 548.586,265.957 548.086,266.291 547.5,266.5C 546.408,265.169 545.074,264.336 543.5,264C 544.416,263.722 545.082,263.222 545.5,262.5C 549.442,260.964 553.442,259.63 557.5,258.5C 558.151,259.091 558.818,259.757 559.5,260.5C 560.59,259.273 561.924,258.44 563.5,258C 598.778,254.564 633.778,249.398 668.5,242.5C 669.491,249.326 673.158,251.493 679.5,249C 681.084,245.058 679.75,242.558 675.5,241.5C 680.754,236.585 686.087,231.585 691.5,226.5 Z"/></g>
<g><path style="opacity:1" fill="#43def6" d="M 590.5,263.5 C 594.219,263.002 597.553,263.836 600.5,266C 601.576,267.726 601.743,269.559 601,271.5C 593.687,274.031 590.187,271.365 590.5,263.5 Z"/></g>
<g><path style="opacity:1" fill="#44e3fa" d="M 166.5,269.5 C 166.737,270.791 166.404,271.791 165.5,272.5C 163.871,270.804 164.204,269.804 166.5,269.5 Z"/></g>
<g><path style="opacity:1" fill="#2556b9" d="M 545.5,262.5 C 545.082,263.222 544.416,263.722 543.5,264C 545.074,264.336 546.408,265.169 547.5,266.5C 548.086,266.291 548.586,265.957 549,265.5C 549.615,267.116 550.615,268.449 552,269.5C 554.022,268.009 555.688,268.342 557,270.5C 557.336,268.926 558.169,267.592 559.5,266.5C 559.554,267.53 559.888,268.697 560.5,270C 561.416,270.374 562.25,270.874 563,271.5C 567.245,269.796 570.245,271.462 572,276.5C 572.483,275.552 572.649,274.552 572.5,273.5C 574.936,273.317 577.103,273.984 579,275.5C 582.295,274.469 584.961,275.469 587,278.5C 587.667,275.833 588.333,275.833 589,278.5C 591.184,277.892 593.184,278.559 595,280.5C 596.268,280.384 597.602,280.051 599,279.5C 599.667,280.833 600.333,282.167 601,283.5C 604.902,282.923 608.569,282.923 612,283.5C 612.903,284.701 614.069,285.535 615.5,286C 615.167,286.333 614.833,286.667 614.5,287C 616.747,288.655 619.08,288.988 621.5,288C 620.346,288.914 620.513,289.747 622,290.5C 623.154,288.043 624.488,288.043 626,290.5C 627.904,289.898 629.737,290.398 631.5,292C 630.346,292.914 630.513,293.747 632,294.5C 634.898,292.077 637.232,292.744 639,296.5C 639.667,295.167 640.333,295.167 641,296.5C 641.333,295.833 641.667,295.167 642,294.5C 643.237,296.104 644.403,297.771 645.5,299.5C 649.789,298.445 653.289,299.778 656,303.5C 657.016,302.366 657.683,302.699 658,304.5C 659.333,303.833 660.667,303.167 662,302.5C 662.953,304.455 664.287,306.122 666,307.5C 666.333,307.167 666.667,306.833 667,306.5C 669.698,307.28 672.031,308.613 674,310.5C 674.333,309.833 674.667,309.167 675,308.5C 675.417,309.756 676.25,310.423 677.5,310.5C 676.89,311.391 676.557,312.391 676.5,313.5C 617.5,313.5 558.5,313.5 499.5,313.5C 503.147,303.258 506.647,292.924 510,282.5C 520.305,273.098 532.138,266.431 545.5,262.5 Z"/></g>
<g><path style="opacity:1" fill="#44e4f8" d="M 567.5,273.5 C 568.713,274.497 568.546,275.497 567,276.5C 566.53,275.423 566.697,274.423 567.5,273.5 Z"/></g>
<g><path style="opacity:1" fill="#46a2bf" d="M 831.5,272.5 C 833.973,272.088 835.306,273.088 835.5,275.5C 832.6,276.954 831.267,275.954 831.5,272.5 Z"/></g>
<g><path style="opacity:1" fill="#29ced9" d="M 66.5,272.5 C 68.1836,283.681 63.1836,289.848 51.5,291C 45.3804,291.341 39.3804,292.008 33.5,293C 41.848,287.825 50.5147,283.158 59.5,279C 62.3312,277.334 64.6645,275.168 66.5,272.5 Z"/></g>
<g><path style="opacity:1" fill="#45e6f9" d="M 150.5,284.5 C 152.832,285.162 153.499,286.495 152.5,288.5C 151.295,287.423 150.628,286.09 150.5,284.5 Z"/></g>
<g><path style="opacity:1" fill="#45eafc" d="M 279.5,287.5 C 281.344,288.204 281.844,289.537 281,291.5C 279.812,290.437 279.312,289.103 279.5,287.5 Z"/></g>
<g><path style="opacity:1" fill="#44def6" d="M 789.5,285.5 C 790.649,285.791 791.316,286.624 791.5,288C 791.333,288.833 791.167,289.667 791,290.5C 790.392,288.846 789.892,287.179 789.5,285.5 Z"/></g>
<g><path style="opacity:1" fill="#14a9eb" d="M 153.5,234.5 C 151.146,236.188 149.146,238.188 147.5,240.5C 140.769,238.805 134.436,239.805 128.5,243.5C 126.906,249.433 129.239,252.933 135.5,254C 133.51,255.84 133.51,257.007 135.5,257.5C 134.363,261.417 133.53,265.417 133,269.5C 132.832,278.186 132.332,286.852 131.5,295.5C 123.426,290.815 114.759,288.648 105.5,289C 96.3713,294.966 90.038,303.133 86.5,313.5C 77.8333,313.5 69.1667,313.5 60.5,313.5C 61.4237,307.731 62.757,302.064 64.5,296.5C 65.5,296.167 66.1667,295.5 66.5,294.5C 71.5266,292.317 76.1933,289.483 80.5,286C 86.2579,285.515 91.9246,284.515 97.5,283C 100.432,281.7 102.766,279.7 104.5,277C 108.287,276.84 111.954,276.174 115.5,275C 117.444,272.847 117.944,270.347 117,267.5C 115.028,266.695 113.528,265.361 112.5,263.5C 114.885,261.116 116.885,258.45 118.5,255.5C 116.556,252.845 113.89,251.511 110.5,251.5C 106.018,250.674 101.351,250.174 96.5,250C 98.7885,249.178 101.122,248.511 103.5,248C 104.126,247.25 104.626,246.416 105,245.5C 106.751,246.174 108.417,246.507 110,246.5C 110.928,244.665 112.094,244.332 113.5,245.5C 116.934,243.742 120.434,242.075 124,240.5C 124.333,241.167 124.667,241.833 125,242.5C 127,240.5 129,238.5 131,236.5C 131.333,237.167 131.667,237.833 132,238.5C 133.473,238.868 134.973,238.368 136.5,237C 135.747,235.513 134.914,235.346 134,236.5C 133.333,235.5 133.333,234.5 134,233.5C 136.454,235.013 138.121,234.346 139,231.5C 139.711,233.367 139.211,234.867 137.5,236C 139.35,238.033 140.016,238.033 139.5,236C 142.008,235.346 144.174,234.179 146,232.5C 146.561,233.022 147.228,233.355 148,233.5C 149.928,232.44 151.595,231.107 153,229.5C 153.783,231.433 153.283,232.933 151.5,234C 152.094,234.464 152.761,234.631 153.5,234.5 Z"/></g>
<g><path style="opacity:1" fill="#43d8f3" d="M 800.5,291.5 C 802.337,291.639 802.67,292.306 801.5,293.5C 800.702,293.043 800.369,292.376 800.5,291.5 Z"/></g>
<g><path style="opacity:0.928" fill="#1b82de" d="M 841.5,279.5 C 849.496,284.839 857.163,290.672 864.5,297C 870.151,301.805 874.818,307.305 878.5,313.5C 872.5,313.5 866.5,313.5 860.5,313.5C 853.153,302.813 846.819,291.479 841.5,279.5 Z"/></g>
<g><path style="opacity:1" fill="#44e1f8" d="M 147.5,292.5 C 149.983,292.73 150.483,293.397 149,294.5C 147.97,294.164 147.47,293.497 147.5,292.5 Z"/></g>
<g><path style="opacity:1" fill="#45e6fa" d="M 792.5,293.5 C 796.588,293.218 797.088,293.885 794,295.5C 792.97,295.164 792.47,294.497 792.5,293.5 Z"/></g>
<g><path style="opacity:0.941" fill="#4393f6" d="M 266.5,313.5 C 253.833,313.5 241.167,313.5 228.5,313.5C 221.4,308.235 215.067,302.068 209.5,295C 217.833,294.333 226.167,294.333 234.5,295C 246.595,298.875 257.262,305.041 266.5,313.5 Z"/></g>
<g><path style="opacity:1" fill="#48a4bd" d="M 172.5,296.5 C 176.999,296.935 177.332,297.935 173.5,299.5C 171.197,299.124 170.863,298.124 172.5,296.5 Z"/></g>
<g><path style="opacity:1" fill="#42ddf6" d="M 794.5,297.5 C 795.713,298.497 795.546,299.497 794,300.5C 793.53,299.423 793.697,298.423 794.5,297.5 Z"/></g>
<g><path style="opacity:0.961" fill="#1d76db" d="M 427.5,313.5 C 426.833,313.5 426.167,313.5 425.5,313.5C 425.421,310.729 425.921,308.063 427,305.5C 431.903,297.574 438.737,292.407 447.5,290C 441.748,298.587 435.081,306.421 427.5,313.5 Z"/></g>
<g><path style="opacity:1" fill="#46ecfc" d="M 142.5,301.5 C 142.5,302.167 142.5,302.833 142.5,303.5C 142.631,304.376 142.298,305.043 141.5,305.5C 140.191,303.76 140.524,302.427 142.5,301.5 Z"/></g>
<g><path style="opacity:0.867" fill="#1d75d9" d="M 555.5,255.5 C 556.401,256.29 557.068,257.29 557.5,258.5C 553.442,259.63 549.442,260.964 545.5,262.5C 532.138,266.431 520.305,273.098 510,282.5C 506.647,292.924 503.147,303.258 499.5,313.5C 482.833,313.5 466.167,313.5 449.5,313.5C 462.384,300.785 476.05,288.951 490.5,278C 511.056,271.095 531.389,263.928 551.5,256.5C 553.263,257.954 554.597,257.62 555.5,255.5 Z"/></g>
<g><path style="opacity:0.999" fill="#2bcdd8" d="M 64.5,296.5 C 62.757,302.064 61.4237,307.731 60.5,313.5C 56.5,313.5 52.5,313.5 48.5,313.5C 50.4637,311.873 51.797,309.873 52.5,307.5C 50.4357,307.313 48.4357,306.813 46.5,306C 52.97,303.6 58.97,300.433 64.5,296.5 Z"/></g>
<g><path style="opacity:1" fill="#42d1f1" d="M 178.5,305.5 C 181.073,305.148 183.406,305.648 185.5,307C 182.643,308.043 179.81,309.21 177,310.5C 176.878,308.718 177.378,307.052 178.5,305.5 Z"/></g>
<g><path style="opacity:0.889" fill="#27cdd8" d="M 31.5,313.5 C 22.1667,313.5 12.8333,313.5 3.5,313.5C 6.49934,310.242 9.99934,307.575 14,305.5C 20.6057,308.021 27.439,309.521 34.5,310C 33.2899,311.039 32.2899,312.206 31.5,313.5 Z"/></g>
<g><path style="opacity:1" fill="#41ddf7" d="M 113.5,307.5 C 115.337,307.639 115.67,308.306 114.5,309.5C 113.702,309.043 113.369,308.376 113.5,307.5 Z"/></g>
<g><path style="opacity:0.823" fill="#42dcf5" d="M 157.5,313.5 C 154.167,313.5 150.833,313.5 147.5,313.5C 146.61,311.218 146.444,308.885 147,306.5C 153.24,304.704 156.74,307.037 157.5,313.5 Z"/></g>
<g><path style="opacity:1" fill="#4495f8" d="M 680.5,313.5 C 679.167,313.5 677.833,313.5 676.5,313.5C 676.557,312.391 676.89,311.391 677.5,310.5C 688.201,299.546 689.201,300.546 680.5,313.5 Z"/></g>
</svg>
